# Blender v2.79 (sub 0) OBJ File: ''
# www.blender.org
mtllib grass.mtl
o Cube_Cube.003
v -0.017523 -0.033319 0.017604
v -0.017523 0.001888 0.017604
v -0.017523 -0.033319 -0.017604
v -0.017523 0.001888 -0.017604
v 0.017684 -0.033319 0.017604
v 0.018269 0.001888 0.017604
v 0.017684 -0.033319 -0.017604
v 0.018269 0.001888 -0.017604
v -0.078805 0.137785 0.047376
v -0.089825 0.145820 0.027043
v -0.067963 0.137785 0.047376
v -0.080683 0.145820 0.027043
v 0.005268 0.044545 0.028056
v -0.016294 0.044545 0.019331
v -0.023454 0.040206 -0.003365
v 0.009995 0.030393 -0.005713
v -0.014023 0.244794 -0.081152
v 0.014023 0.244794 -0.081152
v -0.012038 0.244927 -0.066279
v 0.012038 0.244927 -0.066279
v -0.009062 0.289742 -0.118818
v 0.009062 0.289742 -0.118818
v -0.007779 0.293465 -0.109643
v 0.007779 0.293465 -0.109643
v -0.002475 0.305749 -0.177946
v 0.002475 0.305749 -0.177946
v -0.002124 0.311620 -0.179159
v 0.002124 0.311620 -0.179159
v 0.060471 0.143717 0.043400
v 0.067632 0.136161 0.017284
v 0.054006 0.146383 0.050148
v 0.059089 0.149917 0.028978
v 0.080599 0.155214 0.039690
v 0.080599 0.155214 0.025834
v 0.078120 0.164801 0.044939
v 0.081711 0.164561 0.032633
v -0.101978 0.155781 0.061934
v -0.108932 0.167349 0.056700
v -0.094649 0.164311 0.071050
v -0.101603 0.168785 0.065816
v -0.117664 0.152381 0.078230
v -0.120566 0.157208 0.076046
v -0.114606 0.155940 0.082033
v -0.117508 0.160767 0.079849
vn -1.0000 0.0000 0.0000
vn 0.0000 0.0000 -1.0000
vn 0.9999 -0.0166 0.0000
vn 0.0000 0.0000 1.0000
vn 0.0000 -1.0000 0.0000
vn 0.0000 -0.2880 0.9576
vn 0.6501 0.7519 -0.1096
vn 0.0163 0.2848 -0.9585
vn 0.7453 0.6304 -0.2171
vn -0.7992 -0.5629 0.2107
vn -0.9882 -0.1530 0.0000
vn 0.5645 -0.4238 0.7083
vn -0.9647 -0.0535 -0.2578
vn -0.3750 -0.0267 0.9267
vn 0.0000 0.6662 0.7457
vn 0.0000 -0.2531 -0.9674
vn 0.9909 0.0278 0.1320
vn 0.0000 0.2938 0.9559
vn -0.9942 0.0386 -0.1003
vn 0.9715 0.1995 0.1279
vn -0.9835 0.1670 0.0697
vn 0.0000 -0.6423 -0.7665
vn 0.0000 -0.2024 -0.9793
vn 0.0000 -0.9653 -0.2613
vn 0.0000 0.9675 0.2527
vn 0.9492 0.3147 0.0050
vn -0.5166 0.8397 -0.1671
vn -0.8481 0.4358 -0.3014
vn 0.8842 -0.3243 0.3363
vn -0.2203 0.3204 -0.9213
vn 0.9561 0.0955 0.2771
vn -0.2494 0.5327 -0.8087
vn 0.5246 -0.4899 0.6962
vn 0.4960 -0.8683 0.0000
vn 0.5134 -0.7926 0.3289
vn -0.8231 -0.5531 -0.1288
vn -0.0867 -0.6917 0.7170
vn 0.0000 0.8604 -0.5096
vn -0.7162 -0.1195 0.6876
vn -0.5964 0.7666 -0.2379
vn 0.2371 0.5152 0.8236
vn -0.5161 -0.5908 -0.6201
vn -0.3373 -0.4376 0.8335
vn 0.6066 0.7832 -0.1366
vn 0.0000 0.2767 -0.9610
vn 0.7532 0.6376 -0.1618
vn -0.7292 -0.5921 0.3432
vn -0.9544 0.0154 0.2981
vn 0.1020 -0.2073 0.9729
vn -0.9868 0.0952 0.1308
vn 0.0000 -0.2380 0.9713
vn 0.9219 0.1131 0.3705
vn 0.1454 0.2675 0.9525
vn -0.9492 0.3147 0.0050
vn 0.9835 0.1670 0.0697
vn -0.9715 0.1995 0.1279
vn 0.9942 0.0386 -0.1003
vn -0.6088 0.7932 -0.0138
vn -0.8818 0.4516 -0.1364
vn 0.9386 -0.3451 0.0000
vn -0.4348 0.4111 -0.8012
vn 0.9930 -0.1182 0.0000
vn -0.2570 0.5883 -0.7668
vn 0.3691 -0.3711 0.8521
vn 0.6826 -0.6304 0.3696
vn -0.6073 -0.7943 0.0152
vn 0.0000 -0.6659 0.7461
vn 0.3344 0.8519 -0.4030
vn -0.4272 0.8807 0.2047
vn 0.0938 0.8149 0.5719
usemtl None
s off
f 2//1 3//1 1//1
f 4//2 7//2 3//2
f 8//3 5//3 7//3
f 5//4 2//4 1//4
f 7//5 1//5 3//5
f 14//6 11//6 9//6
f 12//7 39//7 11//7
f 15//8 12//8 16//8
f 13//9 12//9 11//9
f 15//10 9//10 10//10
f 2//11 15//11 4//11
f 13//12 29//12 31//12
f 15//13 17//13 4//13
f 2//14 13//14 14//14
f 20//15 23//15 19//15
f 4//16 18//16 8//16
f 16//17 18//17 20//17
f 15//18 20//18 19//18
f 21//19 27//19 25//19
f 18//20 24//20 20//20
f 17//21 23//21 21//21
f 17//22 22//22 18//22
f 25//23 28//23 26//23
f 21//24 26//24 22//24
f 24//25 27//25 23//25
f 22//26 28//26 24//26
f 32//27 35//27 36//27
f 13//28 32//28 16//28
f 6//29 30//29 29//29
f 16//30 30//30 8//30
f 33//31 36//31 35//31
f 32//32 34//32 30//32
f 29//33 35//33 31//33
f 29//34 34//34 33//34
f 37//35 43//35 41//35
f 10//36 37//36 38//36
f 9//37 39//37 37//37
f 10//38 40//38 12//38
f 42//39 43//39 44//39
f 40//40 42//40 44//40
f 39//41 44//41 43//41
f 37//42 42//42 38//42
f 2//1 4//1 3//1
f 4//2 8//2 7//2
f 8//3 6//3 5//3
f 5//4 6//4 2//4
f 7//5 5//5 1//5
f 14//43 13//43 11//43
f 12//44 40//44 39//44
f 15//45 10//45 12//45
f 13//46 16//46 12//46
f 15//47 14//47 9//47
f 2//48 14//48 15//48
f 13//49 6//49 29//49
f 15//50 19//50 17//50
f 2//51 6//51 13//51
f 20//15 24//15 23//15
f 4//16 17//16 18//16
f 16//52 8//52 18//52
f 15//53 16//53 20//53
f 21//54 23//54 27//54
f 18//55 22//55 24//55
f 17//56 19//56 23//56
f 17//22 21//22 22//22
f 25//23 27//23 28//23
f 21//24 25//24 26//24
f 24//25 28//25 27//25
f 22//57 26//57 28//57
f 32//58 31//58 35//58
f 13//59 31//59 32//59
f 6//60 8//60 30//60
f 16//61 32//61 30//61
f 33//62 34//62 36//62
f 32//63 36//63 34//63
f 29//64 33//64 35//64
f 29//65 30//65 34//65
f 37//35 39//35 43//35
f 10//66 9//66 37//66
f 9//67 11//67 39//67
f 10//68 38//68 40//68
f 42//39 41//39 43//39
f 40//69 38//69 42//69
f 39//70 40//70 44//70
f 37//42 41//42 42//42
