# Blender v2.79 (sub 0) OBJ File: 'health.blend'
# www.blender.org
mtllib health.mtl
o Cube
v 0.098003 -0.098003 -0.098003
v 0.098003 -0.098003 0.098003
v -0.098003 -0.098003 0.098003
v -0.098003 -0.098003 -0.098003
v 0.098003 0.098003 -0.098003
v 0.098002 0.098003 0.098003
v -0.098003 0.098003 0.098003
v -0.098003 0.098003 -0.098003
v 0.098003 -0.098003 -0.294008
v -0.098003 -0.098003 -0.294008
v 0.098003 0.098003 -0.294008
v 0.098003 -0.098003 0.294008
v -0.098003 -0.098003 0.294008
v 0.098002 0.098003 0.294008
v -0.098003 0.098003 0.294008
v -0.098003 0.098003 -0.294008
v 0.098003 -0.294008 -0.098003
v 0.098003 -0.294008 0.098003
v -0.098003 -0.294008 -0.098003
v -0.098003 -0.294008 0.098003
v 0.098003 0.294008 -0.098002
v 0.098002 0.294008 0.098003
v -0.098003 0.294008 -0.098003
v -0.098003 0.294008 0.098003
vn 1.0000 -0.0000 0.0000
vn -0.0000 0.0000 1.0000
vn -1.0000 -0.0000 0.0000
vn -0.0000 1.0000 0.0000
vn 0.0000 0.0000 -1.0000
vn 0.0000 -1.0000 0.0000
usemtl Material
s off
f 5//1 22//1 6//1
f 7//2 22//2 24//2
f 5//1 2//1 1//1
f 3//3 15//3 7//3
f 3//3 8//3 4//3
f 6//4 15//4 14//4
f 14//2 13//2 12//2
f 9//5 16//5 11//5
f 6//1 12//1 2//1
f 1//1 11//1 5//1
f 8//4 11//4 16//4
f 4//3 16//3 10//3
f 2//6 13//6 3//6
f 4//6 9//6 1//6
f 18//6 19//6 17//6
f 23//4 22//4 21//4
f 7//3 23//3 8//3
f 2//1 17//1 1//1
f 8//5 21//5 5//5
f 4//3 20//3 3//3
f 3//2 18//2 2//2
f 1//5 19//5 4//5
f 5//1 21//1 22//1
f 7//2 6//2 22//2
f 5//1 6//1 2//1
f 3//3 13//3 15//3
f 3//3 7//3 8//3
f 6//4 7//4 15//4
f 14//2 15//2 13//2
f 9//5 10//5 16//5
f 6//1 14//1 12//1
f 1//1 9//1 11//1
f 8//4 5//4 11//4
f 4//3 8//3 16//3
f 2//6 12//6 13//6
f 4//6 10//6 9//6
f 18//6 20//6 19//6
f 23//4 24//4 22//4
f 7//3 24//3 23//3
f 2//1 18//1 17//1
f 8//5 23//5 21//5
f 4//3 19//3 20//3
f 3//2 20//2 18//2
f 1//5 17//5 19//5
