# Blender v2.79 (sub 0) OBJ File: 'shard.blend'
# www.blender.org
mtllib shard.mtl
o Cube_Cube.001
v -0.028613 -0.067590 0.039716
v 0.012083 -0.011487 0.067590
v -0.067590 -0.092970 -0.067590
v 0.009088 -0.025649 -0.010494
v 0.056323 -0.052368 0.067590
v 0.067590 0.039494 0.047776
v 0.067590 -0.067590 -0.031482
v 0.093674 0.051796 -0.025917
v -0.009675 0.030228 0.067590
v 0.027766 0.084953 0.082120
v 0.002803 0.134452 -0.067590
vn -0.6910 0.7183 0.0811
vn 0.1121 0.5654 -0.8172
vn 0.9655 -0.2176 0.1432
vn -0.2548 -0.2757 0.9269
vn 0.1344 -0.9741 0.1816
vn -0.3813 -0.7148 -0.5863
vn -0.7874 0.6112 -0.0807
vn -0.2693 0.1035 -0.9575
vn 0.9441 -0.0454 0.3266
vn 0.1731 0.1873 0.9669
vn 0.1215 -0.9789 0.1642
vn -0.6819 0.7238 -0.1051
vn -0.8230 0.4841 0.2973
vn 0.2329 0.1215 0.9649
vn 0.8194 0.4429 0.3640
vn -0.6004 -0.3132 -0.7358
vn 0.2724 -0.4166 0.8673
vn 0.6274 0.7645 0.1481
usemtl None
s off
f 1//1 4//1 3//1
f 4//2 7//2 3//2
f 8//3 5//3 7//3
f 5//4 2//4 1//4
f 7//5 1//5 3//5
f 8//6 9//6 11//6
f 1//7 2//7 4//7
f 4//8 8//8 7//8
f 8//9 6//9 5//9
f 5//10 6//10 2//10
f 7//11 5//11 1//11
f 8//12 4//12 2//12
f 11//13 9//13 10//13
f 6//14 9//14 2//14
f 8//15 10//15 6//15
f 8//16 2//16 9//16
f 6//17 10//17 9//17
f 8//18 11//18 10//18
