# Blender v2.79 (sub 0) OBJ File: ''
# www.blender.org
mtllib stone.mtl
o Cube_Cube.002
v 0.082343 -0.168186 0.035673
v -0.057490 -0.064096 0.170076
v -0.049646 -0.124985 -0.135105
v -0.189479 -0.020895 -0.000702
v 0.189479 0.020895 0.000702
v 0.049646 0.124985 0.135105
v 0.057490 0.064096 -0.170076
v -0.082343 0.168186 -0.035673
vn -0.4867 -0.8590 0.1589
vn -0.5996 0.1963 -0.7758
vn 0.4867 0.8590 -0.1589
vn 0.5996 -0.1963 0.7758
vn 0.6353 -0.4729 -0.6106
vn -0.6353 0.4729 0.6106
usemtl None
s off
f 2//1 3//1 1//1
f 4//2 7//2 3//2
f 8//3 5//3 7//3
f 6//4 1//4 5//4
f 7//5 1//5 3//5
f 4//6 6//6 8//6
f 2//1 4//1 3//1
f 4//2 8//2 7//2
f 8//3 6//3 5//3
f 6//4 2//4 1//4
f 7//5 5//5 1//5
f 4//6 2//6 6//6
