# Blender v2.79 (sub 0) OBJ File: ''
# www.blender.org
mtllib untitled.mtl
o Cube.001
v 1.000000 0.333927 -0.999999
v -1.000000 0.288031 1.000000
v 0.999999 0.356277 1.000001
v -1.130116 0.001232 2.466638
v 1.674694 0.001232 2.567685
v -1.000000 0.407616 -1.000000
v -2.730054 0.001232 0.919928
v -2.241106 0.001232 1.830740
v -2.131007 0.001232 -1.940838
v -2.580175 0.001232 -1.080071
v -1.020018 0.001232 -2.361924
v 1.960856 0.001232 -1.850757
v 0.979983 0.001232 -2.599165
v 2.871667 0.001232 -0.989991
v 2.655568 0.001232 1.920821
v 3.105581 0.001232 1.010010
vn -0.0341 0.9994 -0.0112
vn -0.0081 0.9745 0.2242
vn -0.1659 0.9844 0.0589
vn -0.1042 0.9778 0.1820
vn -0.2411 0.9623 -0.1258
vn 0.0353 0.9575 -0.2862
vn 0.1550 0.9668 -0.2031
vn 0.1751 0.9845 -0.0110
vn 0.1653 0.9828 0.0817
vn 0.0368 0.9975 0.0596
vn -0.0335 0.9814 0.1889
vn -0.2481 0.9685 -0.0186
vn -0.1669 0.9819 0.0896
vn -0.1072 0.9532 -0.2828
vn -0.0241 0.9788 -0.2033
vn 0.1730 0.9678 -0.1831
vn 0.1663 0.9859 -0.0195
vn 0.1138 0.9784 0.1726
usemtl Material.001
s 1
f 1//1 2//1 3//1
f 3//2 4//2 5//2
f 6//3 7//3 2//3
f 2//4 8//4 4//4
f 6//5 9//5 10//5
f 1//6 11//6 6//6
f 1//7 12//7 13//7
f 3//8 14//8 1//8
f 3//9 15//9 16//9
f 1//10 6//10 2//10
f 3//11 2//11 4//11
f 6//12 10//12 7//12
f 2//13 7//13 8//13
f 6//14 11//14 9//14
f 1//15 13//15 11//15
f 1//16 14//16 12//16
f 3//17 16//17 14//17
f 3//18 5//18 15//18
